<svg xmlns="http://www.w3.org/2000/svg" width="253" height="256" viewBox="0 0 253 256"><path d="M118.655 1.829C117.745 2.835 117 3.903 117 4.203s-1.554 2.242-3.452 4.315c-1.899 2.073-3.37 4.042-3.268 4.375.101.334-.599 1.507-1.556 2.607s-1.824 2.45-1.926 3-.983 1.856-1.957 2.901c-.975 1.046-1.536 2.284-1.247 2.75s.021.849-.594.849-.84.45-.5 1 .115 1-.5 1-.864.412-.553.915.146 1.065-.366 1.25c-.512.184-1.077 1.01-1.256 1.835s-.651 1.745-1.05 2.043c-.398.299-.892 1.424-1.097 2.5s-.929 3.307-1.608 4.957c-.68 1.65-1.34 3.919-1.466 5.042-.126 1.124-.486 2.474-.799 3-.313.527-.89 2.452-1.282 4.277-.66 3.075-.84 3.204-2.446 1.75-.954-.863-2.153-1.569-2.665-1.569s-1.52-.944-2.241-2.097c-.72-1.154-1.576-1.832-1.901-1.507s-1.219-.306-1.987-1.402C80.515 46.897 79.275 46 78.527 46s-1.589-.563-1.868-1.25c-.685-1.69-2.822 1.249-2.18 3 .252.687-.026 1.25-.617 1.25-.592 0-.838.62-.547 1.378s.024 1.883-.593 2.5-.695 1.129-.172 1.137.365.387-.35.84c-.715.454-1.373 1.797-1.463 2.985-.089 1.188-.487 2.16-.882 2.16-.396 0-.997.872-1.335 1.937-.338 1.066-2.907 6.128-5.708 11.25s-5.105 9.876-5.12 10.563-.427 1.25-.918 1.25c-.49 0-.614.45-.274 1s.115 1-.5 1-.84.45-.5 1 .115 1-.5 1-.84.45-.5 1 .19 1-.333 1c-.831 0-2.612 4.847-2.163 5.888.092.214-.292.672-.853 1.019-.562.347-1.174 1.747-1.361 3.112s-.712 3.073-1.165 3.798c-.454.724-.559 1.582-.234 1.908s.081 1.206-.542 1.957c-.624.752-.849 1.652-.5 2 .348.349.2 1.156-.33 1.795-2.248 2.709-3.542 30.757-1.616 35.023 2 4.428.688 7.154-2.597 5.396-2.556-1.368-14.386-.99-20.347.651-4.283 1.179-9.534 5.077-9.42 6.992.018.293-.663 1.228-1.512 2.077-.85.85-1.313 1.921-1.03 2.379.284.459.043.992-.534 1.184s-1.181 1.581-1.341 3.087c-.161 1.505-.591 3.036-.957 3.402-1.297 1.297-.594 7.891 1.28 12.02 1.905 4.195 9.476 10.788 11.18 9.735.481-.298.875-.148.875.333 0 .48 1.631 1.651 3.624 2.602 4.308 2.054 3.684 3.103-2.124 3.569-.55.044-2.575 1.07-4.5 2.279s-3.76 2.22-4.077 2.246c-1.089.09-7.423 6.92-7.173 7.734.138.448-.128.814-.589.814-1.137 0-3.32 4.934-2.657 6.006.291.471.041 1.157-.554 1.525C.63 222.965 3.632 239 6.22 239c.494 0 .664.379.378.842-1.075 1.739 10.368 10.503 13.122 10.05.429-.071 1.005-.021 1.28.11 1.433.686 17.081.676 17.505-.01.273-.442 1.346-.582 2.383-.311 1.038.271 2.176.024 2.531-.55s1.311-.788 2.126-.475c.814.312 2.037.147 2.718-.367.68-.514 2.782-1.028 4.671-1.142 1.888-.114 3.954-.639 4.592-1.168s1.388-.731 1.67-.45c.678.678 10.999-1.518 12.396-2.637.601-.481 1.332-.634 1.626-.341.49.49 12.292-1.978 15.782-3.3.825-.313 1.885-.481 2.355-.375.471.107 1.412-.268 2.092-.832.68-.565 1.449-.814 1.709-.555.259.26 4.943-.655 10.408-2.034s10.485-2.631 11.157-2.785c.672-.153 1.503-.561 1.848-.905.345-.345 1.212-.403 1.928-.128.715.275 1.581.046 1.924-.508.404-.655 2.456-.462 5.851.551 2.875.857 5.678 1.63 6.228 1.717s1.563.511 2.252.941c2.418 1.511 15.095 5.482 15.668 4.909.319-.319.58-.007.58.693 0 .701.646 1.026 1.435.723.79-.303 1.577-.197 1.75.236.451 1.126 15.911 6.16 16.949 5.518.476-.294.866-.127.866.371 0 1.435 27.757 7.791 35.5 8.129 11.68.51 16.23-.058 21.465-2.68 5.332-2.67 12.65-10.434 11.535-12.237-.282-.456-.083-.98.441-1.165 1.14-.401 2.436-6.061 2.421-10.573-.016-4.801-4.52-12.9-6.496-11.679-.476.294-.866.095-.866-.442 0-1.196-6.751-5.474-8.638-5.474-.749 0-1.362-.352-1.362-.783 0-.43-2.511-1.573-5.581-2.541l-5.58-1.759 3.83-1.304c2.107-.717 4.506-1.597 5.331-1.955s1.838-.747 2.25-.864.863-.301 1-.41c.137-.11 1.375-.404 2.75-.654s2.651-.895 2.835-1.432c.185-.538.747-.723 1.25-.412s.915.088.915-.494.368-.947.818-.809c1.219.373 8.75-7.514 10.612-11.114.892-1.725 1.33-3.136.973-3.136-.356 0-.219-.562.304-1.25 1.548-2.033 1.464-8.405-.162-12.297-1.575-3.77-8.261-11.138-9.712-10.703-.458.138-.833-.227-.833-.809s-.45-.781-1-.441-1 .177-1-.362c0-.854-4.619-2.478-7.5-2.636-.55-.03-1.539-.393-2.199-.806-1.658-1.039-21.392-.005-22.58 1.183-2.116 2.116-3.558.115-2.549-3.539.535-1.937.75-4.101.478-4.809-.271-.708 0-1.781.604-2.385 2.655-2.655.594-40.886-2.3-42.674-.477-.295-.613-1.197-.303-2.004.309-.807.079-1.468-.513-1.468-.591 0-.834-.629-.538-1.399.295-.769.048-1.7-.548-2.069s-.826-1.089-.509-1.601.194-.931-.271-.931c-.466 0-.91-.842-.987-1.871-.203-2.688-13.409-30.129-14.5-30.129-.881 0-6.201 5.801-6.366 6.941-.044.308-3.076 3.709-6.738 7.559-4.757 5.002-6.535 6.364-6.231 4.771.235-1.226-.003-2.495-.528-2.819-.525-.325-.696-1.009-.379-1.521s.239-1.474-.171-2.139-.85-2.126-.976-3.25c-.126-1.123-.789-3.392-1.474-5.042s-1.172-3.337-1.083-3.75-.193-.75-.626-.75-.863-1.006-.956-2.235c-.092-1.23-.641-2.393-1.219-2.586-.578-.192-.796-.761-.485-1.264s.013-.915-.661-.915-.936-.29-.582-.644c.655-.654-4.118-10.349-5.645-11.468-.46-.336-.685-.868-.5-1.181.475-.808-5.419-10.707-6.375-10.707-.435 0-.79-.675-.79-1.5s-.477-1.5-1.059-1.5-.798-.422-.479-.939.008-1.303-.691-1.75c-.699-.446-1.946-1.992-2.771-3.435-1.828-3.198-5.723-8.354-8.727-11.551-1.225-1.304-2.294-2.698-2.374-3.098-.196-.97-3.566-5.227-4.138-5.227-.248 0-1.196.823-2.106 1.829M119 23c-.825.533-1.05.983-.5 1s.357.438-.43.935-1.523 1.546-1.638 2.328c-.115.783-1.384 3.285-2.821 5.56-1.436 2.276-2.611 4.541-2.611 5.035s-.764 2.64-1.698 4.77-1.806 4.772-1.937 5.872-.902 4.811-1.712 8.246c-.811 3.436-1.136 6.456-.723 6.711.73.451 4.544 13.032 4.562 15.043.004.55.251 1.225.548 1.5s1.043 2.188 1.656 4.25c.917 3.077.866 3.75-.281 3.75-.769 0-1.96-.9-2.647-2s-1.728-2-2.313-2-2.784-1.575-4.885-3.5-4.127-3.5-4.5-3.5-2.399-1.575-4.5-3.5-4.031-3.5-4.288-3.5-1.611-.9-3.009-2C82.27 65.638 81 65.468 81 67.429c0 .785-.707 2.135-1.571 3-.865.864-1.311 1.571-.992 1.571.566 0-5.292 11.007-6.386 12-.303.275-.699 1.175-.88 2s-.913 2.175-1.627 3-1.894 3.188-2.622 5.25c-.728 2.063-1.71 3.75-2.182 3.75s-.58.45-.24 1 .115 1-.5 1-.89.37-.61.822c.279.452-.118 2.027-.882 3.5S61.372 107 61.682 107s.062.604-.551 1.342c-.612.738-.884 1.572-.603 1.853s-.208 3.614-1.088 7.407c-1.713 7.387-2.58 23.925-1.383 26.398.399.825 1.5 4.2 2.447 7.5 1.698 5.917 3.675 8.727 6.535 9.285 3.065.599 12.494 4.638 13.196 5.653.404.584.741.709.75.277.008-.432 1.028-.223 2.265.464s2.475 1.279 2.75 1.314c2.397.304 11 4.114 11 4.871 0 .533.276.693.613.356.72-.719 8.604 2.224 9.499 3.547.336.497.899.865 1.25.818s.75-.051.888-.008 1.096.235 2.131.43 2.329.803 2.877 1.351c.594.594 1.889.656 3.21.154 2.391-.909 7.958-2.102 10.782-2.311.963-.071 1.75-.412 1.75-.756 0-.557 9.937-3.291 12.5-3.44.55-.032 1.45-.335 2-.674 1.34-.825 15.478-5.067 18-5.4 1.1-.145 2.113-.358 2.25-.473s.7-.321 1.25-.458 1.225-.363 1.5-.5.95-.363 1.5-.5 1.225-.363 1.5-.5.95-.363 1.5-.5 1.225-.363 1.5-.5a9 9 0 0 1 1.25-.459c.412-.115 2.049-.746 3.636-1.402 2.591-1.071 5.615-1.857 7.947-2.065.459-.041.63-.636.38-1.324-.249-.687.144-2.721.873-4.518.73-1.798 1.347-3.485 1.371-3.75.023-.265.07-.595.103-.732s.272-2.394.531-5.015c.258-2.621.826-5.771 1.262-7 .937-2.644-.662-28.855-1.936-31.735-.122-.275-.309-.95-.416-1.5s-.559-1.9-1.006-3c-3.166-7.803-4.364-11.502-3.73-11.515.404-.009.209-.35-.435-.76-.643-.409-1.318-1.397-1.5-2.195-.804-3.537-2.165-3.46-5.96.336-2.129 2.128-3.87 4.032-3.87 4.23 0 .652-10.461 14.886-11.493 15.639-.554.404-.665.741-.247.75 1.076.021-6.35 11.015-7.441 11.015-.494 0-.907-7.088-.917-15.75-.02-16.021-.212-19.579-1.199-22.25-1.35-3.652-4.95-16.985-4.751-17.598.12-.373-.162-.954-.627-1.29-1.145-.828-5.889-11.303-5.575-12.31.137-.441-.227-.802-.809-.802s-.781-.45-.441-1 .238-1-.225-1c-1.085 0-4.654-5.995-3.582-6.015.444-.009.337-.346-.237-.75C133.299 39.42 124 26.21 124 25.381c0-.573-2.661-3.39-3.179-3.366-.176.009-.996.452-1.821.985M30.5 165.493c-.55.183-2.229.603-3.732.934-3.035.669-5.429 4.409-5.81 9.078-.277 3.385.856 6.728 2.033 6 .431-.266 1.338.187 2.018 1.006S26.833 184 27.551 184s2.013.707 2.878 1.571c.864.865 1.571 1.289 1.571.943s2.25.634 4.999 2.178 4.999 3.172 5 3.617.451.531 1.001.191 1-.115 1 .5.419.859.931.543c.512-.317 1.24-.075 1.618.537.644 1.041 2.37.935 12.451-.766 1.375-.232 3.175-.459 4-.504s1.989-.466 2.587-.934 2.848-1.029 5-1.248c2.152-.218 4.588-.644 5.413-.945 3.442-1.259 15.436-3.532 16.187-3.068.447.277.813.125.813-.337 0-.863-5.909-3.642-7.25-3.408-.412.071-.75-.347-.75-.929s-.419-.8-.931-.484-1.213.118-1.559-.441S81.009 180 79.941 180 78 179.625 78 179.167c0-.459-.619-.834-1.376-.834-2.075 0-13.019-4.557-13.859-5.771-.404-.584-.741-.709-.75-.277-.008.432-1.028.223-2.265-.464s-2.475-1.282-2.75-1.321-1.625-.693-3-1.454-2.62-1.274-2.767-1.139c-.349.321-6.496-1.002-7.551-1.626-1.011-.597-11.809-1.243-13.182-.788m180.041 1.301c-.163.162-1.363.493-2.668.736-1.305.244-5.475 1.336-9.266 2.427s-7.248 1.765-7.681 1.497-1.067-.035-1.408.517c-.507.819-8.047 3.443-12.89 4.484-.62.134-1.88.571-2.8.971s-2.269.849-3 .997-2.549.772-4.042 1.385c-2.781 1.143-13.133 4.268-15.158 4.576-.62.095-1.69.524-2.378.953-.687.43-1.669.522-2.181.206s-1.183-.168-1.491.331c-.477.772-9.695 3.406-16.132 4.609-1.07.2-2.058.455-2.196.565-.138.111-.588.287-1 .392-.412.104-2.508.706-4.656 1.337-2.149.631-4.255.933-4.681.669-.426-.263-1.062-.014-1.413.554s-1.077.762-1.613.43c-.536-.331-1.641-.049-2.455.626-.814.676-1.766.944-2.114.595-.349-.348-1.193-.17-1.875.396-.683.567-2.974 1.212-5.092 1.434s-3.851.464-3.851.538-.675.307-1.5.518c-7.151 1.832-8.97 2.16-9.426 1.704-.289-.289-1.206.038-2.037.728s-2.178.999-2.992.687c-.815-.313-1.721-.18-2.014.294s-2.895 1.205-5.782 1.623c-7.299 1.056-21.697 4.229-22.579 4.975-.181.153.418 1.419 1.331 2.813s1.78 3.121 1.926 3.837.785 2.569 1.419 4.117c1.279 3.121 1.53 7.976.467 9.039-.378.378-.752 1.567-.831 2.643-.158 2.141-.504 2.162 10.879-.657 3.223-.799 6.107-1.206 6.408-.905s1.106.084 1.788-.482c.683-.567 2.974-1.212 5.092-1.434s3.851-.464 3.851-.538.675-.307 1.5-.519c6.276-1.61 10.8-2.662 12.5-2.908 1.1-.159 2.718-.596 3.597-.97.878-.374 2.678-.806 4-.96 1.321-.153 3.078-.564 3.903-.913 2.029-.857 17.882-4.807 21-5.232 1.375-.188 2.725-.441 3-.562s.95-.309 1.5-.416 1.675-.469 2.5-.805c2.008-.818 13.987-3.906 16.5-4.253 1.1-.152 2-.348 2-.436 0-.169 2.973-.944 5.5-1.433.825-.16 2.775-.808 4.334-1.44s3.215-.913 3.681-.625 1.148.036 1.517-.561c.369-.596 1.3-.843 2.069-.548.77.296 1.399.053 1.399-.538s.661-.822 1.468-.513c.807.31 1.753.103 2.101-.461.348-.563 1.208-.804 1.91-.534.703.269 1.67.126 2.149-.319 1.197-1.11 19.457-6.404 21.622-6.269.963.06 1.75-.332 1.75-.872s.563-.89 1.25-.777 2.549-.331 4.136-.984 3.838-1.367 5-1.586c1.163-.219 2.339-.485 2.614-.591s.909-.116 1.408-.022c.5.095 1.2-.3 1.556-.876s1.876-1.15 3.378-1.274c2.856-.237 12.033-7.075 10.949-8.159-.343-.344-.207-.625.302-.625s.922-1.463.917-3.25c-.008-2.575-.831-3.912-3.96-6.435-2.173-1.752-4.311-2.963-4.75-2.691s-1.362.145-2.05-.282c-1.158-.72-15.547-1.206-16.209-.548M28.395 213.17c-.253.409-1.12.489-1.927.179-.807-.309-1.468-.038-1.468.603s-.45.888-1 .548-1-.141-1 .441-.43 1.059-.955 1.059-2.043 1.089-3.375 2.42c-2.002 2.003-2.422 3.428-2.434 8.25-.015 5.983 1.812 9.226 5.708 10.131 3.634.845 15.056.917 15.056.096 0-.494.603-.897 1.339-.897.737 0 2.199-1.795 3.25-3.989s2.136-3.993 2.411-3.999c.753-.018.438-5.494-.393-6.839-.399-.645-.487-1.173-.196-1.173s-.92-1.523-2.691-3.384c-1.771-1.862-3.557-3.185-3.97-2.941-.413.243-1.29.109-1.95-.298-1.611-.996-5.833-1.132-6.405-.207m150.162 3.487c-8.219 2.318-15.194 4.19-15.5 4.16a2.7 2.7 0 0 0-1.057.141c-.661.258-4.115 1.103-6 1.468-2.322.45-7 2.467-7 3.018 0 .271.675.234 1.5-.082.825-.317 1.5-.078 1.5.531s.338.998.75.865c1.426-.46 13.25 3.562 13.25 4.507 0 .522.675.69 1.5.373s1.5-.153 1.5.362.675.678 1.5.362 1.5-.19 1.501.281 1.013.926 2.25 1.01 3.599.719 5.249 1.411 3.385 1.171 3.855 1.062 1.412.266 2.092.83c.68.565 1.503.76 1.828.435s1.164-.238 1.863.194c.699.433 2.642.93 4.317 1.105 1.675.176 3.72.595 4.545.93s3.3.779 5.5.984 5.125.673 6.5 1.041c3.768 1.007 10.343 1.038 11.706.054.664-.479 1.676-.581 2.25-.226s1.044.093 1.044-.581.285-.941.633-.593c.757.758 3.485-2.64 5.459-6.799 1.511-3.183 1.407-7.5-.181-7.5-.523 0-2.641-1.067-4.707-2.371-2.067-1.305-5.208-2.691-6.981-3.08S216 219.4 216 218.862c0-.539-.373-.749-.83-.467-1.068.66-14.569-3.348-14.985-4.449-.173-.459-.96-.586-1.75-.283-.789.303-1.435.149-1.435-.342 0-1.551-3.105-.99-18.443 3.336" fill="#fffcfc" fill-rule="evenodd"/><path d="M52.733 169.124c.679.684 1.486.991 1.793.683.308-.308-.247-.867-1.233-1.243-1.425-.542-1.54-.428-.56.56m-26.92 81.559c.721.289 1.584.253 1.916-.079s-.258-.568-1.312-.525c-1.165.048-1.402.285-.604.604" fill="#fcfcfc" fill-rule="evenodd"/></svg>