<svg version="1.0" xmlns="http://www.w3.org/2000/svg" width="337.333" height="341.333" viewBox="0 0 253 256"><path d="M115.9 6.2C104.8 20.1 97.7 34 94.4 48c-1.1 4.4-2.3 8-2.7 8s-3.9-2.5-7.7-5.5-7.3-5.5-7.7-5.5-2.1 3.7-3.6 8.3c-1.6 4.5-6.2 14.3-10.2 21.8-4.1 7.5-8.8 16.9-10.4 21-6.4 16.1-9.2 39.3-6.2 51.7.7 2.9 1.2 5.5 1 5.6-.2.2-3.5-.1-7.2-.6-6.7-.9-14.2-.1-19.7 2-10.9 4.3-15.9 24.3-8.3 33.2 1.4 1.7 5.9 4.9 10.1 7.2l7.5 4.2-4.9 1.7C9.8 206 3 214 3 226.5c0 13.1 8.6 22.2 22.6 24 6.8.9 33.3-4.3 83.6-16.4l16.6-4 19.6 6.9c27.1 9.7 40.7 13.6 54.9 16.1 13.7 2.4 24.3 2.2 29.8-.6 11.8-5.9 18.5-22.2 12.9-31.3-2.6-4.2-12.4-10.5-20.6-13.2-3.5-1.2-6.4-2.3-6.4-2.5s4.4-1.8 9.8-3.4c9.6-3 15-6 18.5-10.4 8.8-10.9 7.4-24.8-3.1-32.1-2.2-1.5-6.2-3.4-8.9-4.2-5.4-1.7-20.5-1.9-26.8-.5-2.2.6-4.1.8-4.3.6-.3-.2.3-4.4 1.2-9.2 3.1-17.1 1.5-37.2-4.2-53-1.6-4.3-5.8-13.6-9.3-20.6l-6.4-12.8-1.8 2.3c-6.8 8.4-16.2 18.6-16.9 18.2-.4-.3-.8-1.4-.8-2.6 0-3.9-7-23-12.1-32.9-7.3-14.2-27.6-43.7-30.1-43.9-.4 0-2.6 2.4-4.9 5.2m12.8 25.6c11 16.5 18.5 32.6 22 47.1.9 3.8 1.8 13.6 2.2 23l.6 16.4 8.1-12.4c7.8-11.8 17.7-24 18.6-22.9 1.6 1.7 7.9 18.8 9.5 25.5 2.6 11.6 2.3 30-.9 42l-2.3 9-9.5 3.3c-12.1 4.2-38.6 12.3-51.2 15.6l-9.8 2.5L89.3 170l-26.8-10.8-2.4-6.8c-4.7-13.7-3.7-31.6 2.9-49.6 1.6-4.3 6-13.6 9.8-20.7 3.9-7.1 7.3-13.8 7.7-15 .3-1.1.9-2.1 1.3-2.1S89 70.1 97 76.4s14.6 11.3 14.7 11.2c.2-.2-1.5-6.2-3.7-13.5l-3.9-13.2 1.5-6.5c.8-3.6 2.5-9.4 3.8-12.9 2.4-6.6 10.1-20.5 11.4-20.5.4 0 3.9 4.8 7.9 10.8M44 166c2.5.6 14.8 5.2 27.4 10.2 17 6.9 22.3 9.4 21 10-1.1.5-11.3 2.8-22.8 5.2l-20.9 4.4-13.9-7.6c-10.5-5.7-14-8.2-14.4-9.9-.9-3.3 2.4-11.3 5-12.3 2.9-1.2 13.1-1.2 18.6 0m184.8 1.5c5.5 1.7 9.2 5.3 9.2 9 0 3.3-4.1 8.8-8 10.7-8.3 4-59.2 18.6-105.5 30.2-27.2 6.8-64.9 15.6-67 15.6-.9 0-1.1-1.8-.8-6.8.5-6 .2-7.3-2.5-12.4-3.1-5.8-3.1-5.8-.9-6.3 1.2-.2 13-2.8 26.2-5.5 38.6-8.2 65.5-15.4 100-26.7 27.3-8.9 39.1-10.8 49.3-7.8M39 214.9c1.4 1 3.3 3.4 4.4 5.5 1.6 3.2 1.7 4.4.7 7.6-.6 2.1-2.7 5.2-4.6 6.9-3.1 2.7-4.3 3.1-9.6 3.1-7.1 0-11.3-1.9-13.4-6-4.1-7.9.8-15.9 11.5-19 3.3-1 7.9-.2 11 1.9m168.3 1.2c20.2 6.4 26.2 9.9 25 14.8-1.1 4.8-3.3 8-6.4 9.7-8.4 4.3-34-.2-66.4-11.7-11-4-11.8-4.4-9-5.1 1.7-.5 11.6-3.3 22-6.2 10.5-2.9 19.6-5.4 20.3-5.5.8 0 7.3 1.8 14.5 4"/></svg>